<?xml version="1.0" encoding="iso-8859-1"?>
<!-- Generator: Adobe Illustrator 19.0.0, SVG Export Plug-In . SVG Version: 6.00 Build 0)  -->
<svg version="1.1" id="Layer_1" xmlns="http://www.w3.org/2000/svg" xmlns:xlink="http://www.w3.org/1999/xlink" x="0px" y="0px"
	 viewBox="0 0 511.653 511.653" style="enable-background:new 0 0 511.653 511.653;" xml:space="preserve">
<g transform="translate(1 1)">
	<g>
		<path fill="#247eb2" d="M505.88,265.92c-15.36-20.48-30.72-20.48-68.267-0.853l-37.547,23.139V88.426c0-13.653-11.093-25.6-25.6-25.6h-76.8
			v-8.533c0-5.12-3.413-8.533-8.533-8.533H203.8c-5.12,0-8.533,3.413-8.533,8.533v8.533h-76.8c-13.653,0-25.6,11.093-25.6,25.6
			v153.602c-13.343,5.371-25.435,12.318-34.133,17.875v-17.876H-1v221.867h59.733v-25.6h110.933c17.067,0,34.987-1.707,52.053-2.56
			l110.933-17.067c4.267,0,8.533-0.853,11.947-1.707c10.24-1.707,19.627-6.827,28.16-14.507l128.853-102.4
			C511.853,291.52,513.56,276.16,505.88,265.92z M212.333,62.826H280.6v8.533v58.88l-29.013-23.04c-2.56-2.56-6.827-2.56-10.24,0
			l-29.013,23.04V71.36V62.826z M109.933,88.426c0-4.267,3.413-8.533,8.533-8.533h76.8v52.053c0,5.973,3.413,11.947,9.387,14.507
			c1.639,0.82,4.066,1.631,6.523,1.695c3.712,0.288,7.3-0.698,10.544-3.401l24.747-19.627l23.04,19.627
			c3.336,2.224,7.034,3.352,10.858,3.167c2.588,0.14,5.251-0.318,7.915-1.46c5.973-2.56,9.387-8.533,9.387-14.507V79.893h75.093
			c4.267,0,8.533,3.413,8.533,8.533V299.2l-17.92,11.093c-10.104,5.894-32.667,7.633-53.759,7.678
			c4.265-7.68,2.558-17.066-5.121-28.158c-13.653-19.627-36.693-31.573-61.44-31.573H242.2h-32.427
			c-17.92,0-34.987-5.12-48.64-15.36c-7.833-5.874-16.79-8.621-26.177-9.215c-1.485-0.112-2.999-0.172-4.543-0.172
			c-5.973,0-12.8,0.853-20.48,2.56V88.426z M41.667,446.826h-25.6V259.093h25.6v12.8v166.4V446.826z M491.373,288.106L361.667,388.8
			l-0.853,0.853c-5.12,5.973-11.947,9.387-19.627,10.24c-3.413,0.853-5.973,0.853-9.387,0.853l-112.64,17.067
			c-16.213,2.56-33.28,3.413-49.493,3.413H58.733v-140.8c9.892-7.007,26.153-16.998,43.016-23.342
			c1.021-0.015,2.043-0.21,3.064-0.551c20.48-6.827,35.84-6.827,46.08,0.853c16.213,11.947,36.693,18.773,58.88,18.773h33.28
			c19.627,0,37.547,8.533,47.787,24.747c4.178,5.013,5.078,10.018,4.313,11.827c-0.016,0.039-0.029,0.084-0.047,0.12
			c-0.79,1.316-2.315,2.388-4.366,3.267c-0.045,0.019-0.086,0.038-0.131,0.057c-0.254,0.107-0.527,0.206-0.797,0.307
			c-0.239,0.088-0.472,0.178-0.726,0.263c-0.081,0.028-0.167,0.053-0.25,0.08c-1.367,0.446-2.935,0.854-4.713,1.216
			c-0.01,0.002-0.02,0.004-0.029,0.006c-0.571,0.116-1.166,0.226-1.778,0.332c-0.11,0.019-0.221,0.038-0.332,0.056
			c-0.538,0.091-1.092,0.178-1.661,0.262c-0.131,0.019-0.262,0.039-0.394,0.058c-2.825,0.401-6.015,0.714-9.57,0.923
			c-1.766,0-3.511,0-5.12,0c-1.236,0-2.394,0-3.413,0h-79.36c-26.453,0-42.667,12.8-42.667,34.133c0,5.12,3.413,8.533,8.533,8.533
			c5.12,0,8.533-3.413,8.533-8.533c0-4.267,0-17.067,25.6-17.067h78.507v0c2.56,0,5.973,0,11.093,0c0.853,0,2.56,0,4.267,0
			c40.107,0.853,77.653,0,97.28-10.24L447,281.28c35.84-17.92,39.253-13.653,46.08-3.413
			C494.787,280.426,494.787,285.546,491.373,288.106z"/>
	</g>
</g>
<g>
</g>
<g>
</g>
<g>
</g>
<g>
</g>
<g>
</g>
<g>
</g>
<g>
</g>
<g>
</g>
<g>
</g>
<g>
</g>
<g>
</g>
<g>
</g>
<g>
</g>
<g>
</g>
<g>
</g>
</svg>
